M48
; DRILL file {KiCad 7.0.10-1.fc39} date Sa 17 Feb 2024 16:59:44 CET
; FORMAT={-:-/ absolute / inch / decimal}
; #@! TF.CreationDate,2024-02-17T16:59:44+01:00
; #@! TF.GenerationSoftware,Kicad,Pcbnew,7.0.10-1.fc39
; #@! TF.FileFunction,Plated,1,2,PTH
FMAT,2
INCH
; #@! TA.AperFunction,Plated,PTH,ComponentDrill
T1C0.0394
; #@! TA.AperFunction,Plated,PTH,ComponentDrill
T2C0.1181
; #@! TA.AperFunction,Plated,PTH,ComponentDrill
T3C0.1575
%
G90
G05
T1
X3.8287Y-3.0614
X3.8287Y-3.6614
X3.9287Y-3.0614
X3.9287Y-3.6614
X4.0287Y-3.0614
X4.0287Y-3.6614
X4.1287Y-3.0614
X4.1287Y-3.6614
X4.2287Y-3.0614
X4.2287Y-3.6614
X4.3287Y-3.0614
X4.3287Y-3.6614
X4.4287Y-3.0614
X4.4287Y-3.6614
X4.5Y-4.1
X4.5287Y-3.0614
X4.5287Y-3.6614
X4.6Y-4.1
X4.6287Y-3.0614
X4.6287Y-3.1614
X4.6287Y-3.2614
X4.6287Y-3.3614
X4.6287Y-3.4614
X4.6287Y-3.5614
X4.6287Y-3.6614
X4.7Y-4.1
X4.8Y-4.1
X4.9Y-4.1
X5.0Y-4.1
X5.1Y-4.1
X5.2Y-4.1
X5.4Y-4.1
X5.5Y-4.1
X5.6Y-3.8
X5.6Y-4.1
X5.7Y-3.8
X5.7Y-4.1
X6.0Y-4.1
X6.1Y-4.1
X6.2Y-4.1
X6.3Y-4.1
T2
X4.1732Y-2.752
X4.1732Y-4.0157
X5.1327Y-2.8898
X5.1327Y-3.3622
X6.6339Y-2.752
X6.6339Y-4.0157
T3
X4.1701Y-2.3386
X6.6339Y-2.3386
M30
