%TF.GenerationSoftware,KiCad,Pcbnew,7.0.10-1.fc39*%
%TF.CreationDate,2024-02-17T16:59:11+01:00*%
%TF.ProjectId,morse_usb_keyboard,6d6f7273-655f-4757-9362-5f6b6579626f,rev?*%
%TF.SameCoordinates,Original*%
%TF.FileFunction,Legend,Top*%
%TF.FilePolarity,Positive*%
%FSLAX46Y46*%
G04 Gerber Fmt 4.6, Leading zero omitted, Abs format (unit mm)*
G04 Created by KiCad (PCBNEW 7.0.10-1.fc39) date 2024-02-17 16:59:11*
%MOMM*%
%LPD*%
G01*
G04 APERTURE LIST*
%ADD10C,0.100000*%
%ADD11C,0.150000*%
%ADD12C,0.120000*%
G04 APERTURE END LIST*
D10*
X162329800Y-65733332D02*
X162377419Y-65590475D01*
X162377419Y-65590475D02*
X162377419Y-65352380D01*
X162377419Y-65352380D02*
X162329800Y-65257142D01*
X162329800Y-65257142D02*
X162282180Y-65209523D01*
X162282180Y-65209523D02*
X162186942Y-65161904D01*
X162186942Y-65161904D02*
X162091704Y-65161904D01*
X162091704Y-65161904D02*
X161996466Y-65209523D01*
X161996466Y-65209523D02*
X161948847Y-65257142D01*
X161948847Y-65257142D02*
X161901228Y-65352380D01*
X161901228Y-65352380D02*
X161853609Y-65542856D01*
X161853609Y-65542856D02*
X161805990Y-65638094D01*
X161805990Y-65638094D02*
X161758371Y-65685713D01*
X161758371Y-65685713D02*
X161663133Y-65733332D01*
X161663133Y-65733332D02*
X161567895Y-65733332D01*
X161567895Y-65733332D02*
X161472657Y-65685713D01*
X161472657Y-65685713D02*
X161425038Y-65638094D01*
X161425038Y-65638094D02*
X161377419Y-65542856D01*
X161377419Y-65542856D02*
X161377419Y-65304761D01*
X161377419Y-65304761D02*
X161425038Y-65161904D01*
X161377419Y-64828570D02*
X162377419Y-64590475D01*
X162377419Y-64590475D02*
X161663133Y-64399999D01*
X161663133Y-64399999D02*
X162377419Y-64209523D01*
X162377419Y-64209523D02*
X161377419Y-63971428D01*
X162377419Y-63066666D02*
X162377419Y-63638094D01*
X162377419Y-63352380D02*
X161377419Y-63352380D01*
X161377419Y-63352380D02*
X161520276Y-63447618D01*
X161520276Y-63447618D02*
X161615514Y-63542856D01*
X161615514Y-63542856D02*
X161663133Y-63638094D01*
X161792419Y-94096115D02*
X160792419Y-94096115D01*
X160792419Y-94096115D02*
X161506704Y-93762782D01*
X161506704Y-93762782D02*
X160792419Y-93429449D01*
X160792419Y-93429449D02*
X161792419Y-93429449D01*
X161792419Y-92810401D02*
X161744800Y-92905639D01*
X161744800Y-92905639D02*
X161697180Y-92953258D01*
X161697180Y-92953258D02*
X161601942Y-93000877D01*
X161601942Y-93000877D02*
X161316228Y-93000877D01*
X161316228Y-93000877D02*
X161220990Y-92953258D01*
X161220990Y-92953258D02*
X161173371Y-92905639D01*
X161173371Y-92905639D02*
X161125752Y-92810401D01*
X161125752Y-92810401D02*
X161125752Y-92667544D01*
X161125752Y-92667544D02*
X161173371Y-92572306D01*
X161173371Y-92572306D02*
X161220990Y-92524687D01*
X161220990Y-92524687D02*
X161316228Y-92477068D01*
X161316228Y-92477068D02*
X161601942Y-92477068D01*
X161601942Y-92477068D02*
X161697180Y-92524687D01*
X161697180Y-92524687D02*
X161744800Y-92572306D01*
X161744800Y-92572306D02*
X161792419Y-92667544D01*
X161792419Y-92667544D02*
X161792419Y-92810401D01*
X161792419Y-92048496D02*
X161125752Y-92048496D01*
X161316228Y-92048496D02*
X161220990Y-92000877D01*
X161220990Y-92000877D02*
X161173371Y-91953258D01*
X161173371Y-91953258D02*
X161125752Y-91858020D01*
X161125752Y-91858020D02*
X161125752Y-91762782D01*
X161744800Y-91477067D02*
X161792419Y-91381829D01*
X161792419Y-91381829D02*
X161792419Y-91191353D01*
X161792419Y-91191353D02*
X161744800Y-91096115D01*
X161744800Y-91096115D02*
X161649561Y-91048496D01*
X161649561Y-91048496D02*
X161601942Y-91048496D01*
X161601942Y-91048496D02*
X161506704Y-91096115D01*
X161506704Y-91096115D02*
X161459085Y-91191353D01*
X161459085Y-91191353D02*
X161459085Y-91334210D01*
X161459085Y-91334210D02*
X161411466Y-91429448D01*
X161411466Y-91429448D02*
X161316228Y-91477067D01*
X161316228Y-91477067D02*
X161268609Y-91477067D01*
X161268609Y-91477067D02*
X161173371Y-91429448D01*
X161173371Y-91429448D02*
X161125752Y-91334210D01*
X161125752Y-91334210D02*
X161125752Y-91191353D01*
X161125752Y-91191353D02*
X161173371Y-91096115D01*
X161744800Y-90238972D02*
X161792419Y-90334210D01*
X161792419Y-90334210D02*
X161792419Y-90524686D01*
X161792419Y-90524686D02*
X161744800Y-90619924D01*
X161744800Y-90619924D02*
X161649561Y-90667543D01*
X161649561Y-90667543D02*
X161268609Y-90667543D01*
X161268609Y-90667543D02*
X161173371Y-90619924D01*
X161173371Y-90619924D02*
X161125752Y-90524686D01*
X161125752Y-90524686D02*
X161125752Y-90334210D01*
X161125752Y-90334210D02*
X161173371Y-90238972D01*
X161173371Y-90238972D02*
X161268609Y-90191353D01*
X161268609Y-90191353D02*
X161363847Y-90191353D01*
X161363847Y-90191353D02*
X161459085Y-90667543D01*
X161792419Y-89000876D02*
X160792419Y-89000876D01*
X161792419Y-88429448D02*
X161220990Y-88858019D01*
X160792419Y-88429448D02*
X161363847Y-89000876D01*
X161744800Y-87619924D02*
X161792419Y-87715162D01*
X161792419Y-87715162D02*
X161792419Y-87905638D01*
X161792419Y-87905638D02*
X161744800Y-88000876D01*
X161744800Y-88000876D02*
X161649561Y-88048495D01*
X161649561Y-88048495D02*
X161268609Y-88048495D01*
X161268609Y-88048495D02*
X161173371Y-88000876D01*
X161173371Y-88000876D02*
X161125752Y-87905638D01*
X161125752Y-87905638D02*
X161125752Y-87715162D01*
X161125752Y-87715162D02*
X161173371Y-87619924D01*
X161173371Y-87619924D02*
X161268609Y-87572305D01*
X161268609Y-87572305D02*
X161363847Y-87572305D01*
X161363847Y-87572305D02*
X161459085Y-88048495D01*
X161125752Y-87238971D02*
X161792419Y-87000876D01*
X161125752Y-86762781D02*
X161792419Y-87000876D01*
X161792419Y-87000876D02*
X162030514Y-87096114D01*
X162030514Y-87096114D02*
X162078133Y-87143733D01*
X162078133Y-87143733D02*
X162125752Y-87238971D01*
X161792419Y-85619923D02*
X160792419Y-85619923D01*
X160792419Y-85619923D02*
X160792419Y-85238971D01*
X160792419Y-85238971D02*
X160840038Y-85143733D01*
X160840038Y-85143733D02*
X160887657Y-85096114D01*
X160887657Y-85096114D02*
X160982895Y-85048495D01*
X160982895Y-85048495D02*
X161125752Y-85048495D01*
X161125752Y-85048495D02*
X161220990Y-85096114D01*
X161220990Y-85096114D02*
X161268609Y-85143733D01*
X161268609Y-85143733D02*
X161316228Y-85238971D01*
X161316228Y-85238971D02*
X161316228Y-85619923D01*
X161792419Y-84619923D02*
X161125752Y-84619923D01*
X161316228Y-84619923D02*
X161220990Y-84572304D01*
X161220990Y-84572304D02*
X161173371Y-84524685D01*
X161173371Y-84524685D02*
X161125752Y-84429447D01*
X161125752Y-84429447D02*
X161125752Y-84334209D01*
X161744800Y-83619923D02*
X161792419Y-83715161D01*
X161792419Y-83715161D02*
X161792419Y-83905637D01*
X161792419Y-83905637D02*
X161744800Y-84000875D01*
X161744800Y-84000875D02*
X161649561Y-84048494D01*
X161649561Y-84048494D02*
X161268609Y-84048494D01*
X161268609Y-84048494D02*
X161173371Y-84000875D01*
X161173371Y-84000875D02*
X161125752Y-83905637D01*
X161125752Y-83905637D02*
X161125752Y-83715161D01*
X161125752Y-83715161D02*
X161173371Y-83619923D01*
X161173371Y-83619923D02*
X161268609Y-83572304D01*
X161268609Y-83572304D02*
X161363847Y-83572304D01*
X161363847Y-83572304D02*
X161459085Y-84048494D01*
X161744800Y-83191351D02*
X161792419Y-83096113D01*
X161792419Y-83096113D02*
X161792419Y-82905637D01*
X161792419Y-82905637D02*
X161744800Y-82810399D01*
X161744800Y-82810399D02*
X161649561Y-82762780D01*
X161649561Y-82762780D02*
X161601942Y-82762780D01*
X161601942Y-82762780D02*
X161506704Y-82810399D01*
X161506704Y-82810399D02*
X161459085Y-82905637D01*
X161459085Y-82905637D02*
X161459085Y-83048494D01*
X161459085Y-83048494D02*
X161411466Y-83143732D01*
X161411466Y-83143732D02*
X161316228Y-83191351D01*
X161316228Y-83191351D02*
X161268609Y-83191351D01*
X161268609Y-83191351D02*
X161173371Y-83143732D01*
X161173371Y-83143732D02*
X161125752Y-83048494D01*
X161125752Y-83048494D02*
X161125752Y-82905637D01*
X161125752Y-82905637D02*
X161173371Y-82810399D01*
X161744800Y-82381827D02*
X161792419Y-82286589D01*
X161792419Y-82286589D02*
X161792419Y-82096113D01*
X161792419Y-82096113D02*
X161744800Y-82000875D01*
X161744800Y-82000875D02*
X161649561Y-81953256D01*
X161649561Y-81953256D02*
X161601942Y-81953256D01*
X161601942Y-81953256D02*
X161506704Y-82000875D01*
X161506704Y-82000875D02*
X161459085Y-82096113D01*
X161459085Y-82096113D02*
X161459085Y-82238970D01*
X161459085Y-82238970D02*
X161411466Y-82334208D01*
X161411466Y-82334208D02*
X161316228Y-82381827D01*
X161316228Y-82381827D02*
X161268609Y-82381827D01*
X161268609Y-82381827D02*
X161173371Y-82334208D01*
X161173371Y-82334208D02*
X161125752Y-82238970D01*
X161125752Y-82238970D02*
X161125752Y-82096113D01*
X161125752Y-82096113D02*
X161173371Y-82000875D01*
X161744800Y-81143732D02*
X161792419Y-81238970D01*
X161792419Y-81238970D02*
X161792419Y-81429446D01*
X161792419Y-81429446D02*
X161744800Y-81524684D01*
X161744800Y-81524684D02*
X161649561Y-81572303D01*
X161649561Y-81572303D02*
X161268609Y-81572303D01*
X161268609Y-81572303D02*
X161173371Y-81524684D01*
X161173371Y-81524684D02*
X161125752Y-81429446D01*
X161125752Y-81429446D02*
X161125752Y-81238970D01*
X161125752Y-81238970D02*
X161173371Y-81143732D01*
X161173371Y-81143732D02*
X161268609Y-81096113D01*
X161268609Y-81096113D02*
X161363847Y-81096113D01*
X161363847Y-81096113D02*
X161459085Y-81572303D01*
X161792419Y-80238970D02*
X160792419Y-80238970D01*
X161744800Y-80238970D02*
X161792419Y-80334208D01*
X161792419Y-80334208D02*
X161792419Y-80524684D01*
X161792419Y-80524684D02*
X161744800Y-80619922D01*
X161744800Y-80619922D02*
X161697180Y-80667541D01*
X161697180Y-80667541D02*
X161601942Y-80715160D01*
X161601942Y-80715160D02*
X161316228Y-80715160D01*
X161316228Y-80715160D02*
X161220990Y-80667541D01*
X161220990Y-80667541D02*
X161173371Y-80619922D01*
X161173371Y-80619922D02*
X161125752Y-80524684D01*
X161125752Y-80524684D02*
X161125752Y-80334208D01*
X161125752Y-80334208D02*
X161173371Y-80238970D01*
X161268609Y-78667541D02*
X161316228Y-78524684D01*
X161316228Y-78524684D02*
X161363847Y-78477065D01*
X161363847Y-78477065D02*
X161459085Y-78429446D01*
X161459085Y-78429446D02*
X161601942Y-78429446D01*
X161601942Y-78429446D02*
X161697180Y-78477065D01*
X161697180Y-78477065D02*
X161744800Y-78524684D01*
X161744800Y-78524684D02*
X161792419Y-78619922D01*
X161792419Y-78619922D02*
X161792419Y-79000874D01*
X161792419Y-79000874D02*
X160792419Y-79000874D01*
X160792419Y-79000874D02*
X160792419Y-78667541D01*
X160792419Y-78667541D02*
X160840038Y-78572303D01*
X160840038Y-78572303D02*
X160887657Y-78524684D01*
X160887657Y-78524684D02*
X160982895Y-78477065D01*
X160982895Y-78477065D02*
X161078133Y-78477065D01*
X161078133Y-78477065D02*
X161173371Y-78524684D01*
X161173371Y-78524684D02*
X161220990Y-78572303D01*
X161220990Y-78572303D02*
X161268609Y-78667541D01*
X161268609Y-78667541D02*
X161268609Y-79000874D01*
X161792419Y-77572303D02*
X161268609Y-77572303D01*
X161268609Y-77572303D02*
X161173371Y-77619922D01*
X161173371Y-77619922D02*
X161125752Y-77715160D01*
X161125752Y-77715160D02*
X161125752Y-77905636D01*
X161125752Y-77905636D02*
X161173371Y-78000874D01*
X161744800Y-77572303D02*
X161792419Y-77667541D01*
X161792419Y-77667541D02*
X161792419Y-77905636D01*
X161792419Y-77905636D02*
X161744800Y-78000874D01*
X161744800Y-78000874D02*
X161649561Y-78048493D01*
X161649561Y-78048493D02*
X161554323Y-78048493D01*
X161554323Y-78048493D02*
X161459085Y-78000874D01*
X161459085Y-78000874D02*
X161411466Y-77905636D01*
X161411466Y-77905636D02*
X161411466Y-77667541D01*
X161411466Y-77667541D02*
X161363847Y-77572303D01*
X161125752Y-77096112D02*
X161792419Y-77096112D01*
X161220990Y-77096112D02*
X161173371Y-77048493D01*
X161173371Y-77048493D02*
X161125752Y-76953255D01*
X161125752Y-76953255D02*
X161125752Y-76810398D01*
X161125752Y-76810398D02*
X161173371Y-76715160D01*
X161173371Y-76715160D02*
X161268609Y-76667541D01*
X161268609Y-76667541D02*
X161792419Y-76667541D01*
X161792419Y-76191350D02*
X160792419Y-76191350D01*
X161411466Y-76096112D02*
X161792419Y-75810398D01*
X161125752Y-75810398D02*
X161506704Y-76191350D01*
X100272419Y-72696115D02*
X99272419Y-72696115D01*
X99272419Y-72696115D02*
X99986704Y-72362782D01*
X99986704Y-72362782D02*
X99272419Y-72029449D01*
X99272419Y-72029449D02*
X100272419Y-72029449D01*
X100272419Y-71410401D02*
X100224800Y-71505639D01*
X100224800Y-71505639D02*
X100177180Y-71553258D01*
X100177180Y-71553258D02*
X100081942Y-71600877D01*
X100081942Y-71600877D02*
X99796228Y-71600877D01*
X99796228Y-71600877D02*
X99700990Y-71553258D01*
X99700990Y-71553258D02*
X99653371Y-71505639D01*
X99653371Y-71505639D02*
X99605752Y-71410401D01*
X99605752Y-71410401D02*
X99605752Y-71267544D01*
X99605752Y-71267544D02*
X99653371Y-71172306D01*
X99653371Y-71172306D02*
X99700990Y-71124687D01*
X99700990Y-71124687D02*
X99796228Y-71077068D01*
X99796228Y-71077068D02*
X100081942Y-71077068D01*
X100081942Y-71077068D02*
X100177180Y-71124687D01*
X100177180Y-71124687D02*
X100224800Y-71172306D01*
X100224800Y-71172306D02*
X100272419Y-71267544D01*
X100272419Y-71267544D02*
X100272419Y-71410401D01*
X100272419Y-70648496D02*
X99605752Y-70648496D01*
X99796228Y-70648496D02*
X99700990Y-70600877D01*
X99700990Y-70600877D02*
X99653371Y-70553258D01*
X99653371Y-70553258D02*
X99605752Y-70458020D01*
X99605752Y-70458020D02*
X99605752Y-70362782D01*
X100224800Y-70077067D02*
X100272419Y-69981829D01*
X100272419Y-69981829D02*
X100272419Y-69791353D01*
X100272419Y-69791353D02*
X100224800Y-69696115D01*
X100224800Y-69696115D02*
X100129561Y-69648496D01*
X100129561Y-69648496D02*
X100081942Y-69648496D01*
X100081942Y-69648496D02*
X99986704Y-69696115D01*
X99986704Y-69696115D02*
X99939085Y-69791353D01*
X99939085Y-69791353D02*
X99939085Y-69934210D01*
X99939085Y-69934210D02*
X99891466Y-70029448D01*
X99891466Y-70029448D02*
X99796228Y-70077067D01*
X99796228Y-70077067D02*
X99748609Y-70077067D01*
X99748609Y-70077067D02*
X99653371Y-70029448D01*
X99653371Y-70029448D02*
X99605752Y-69934210D01*
X99605752Y-69934210D02*
X99605752Y-69791353D01*
X99605752Y-69791353D02*
X99653371Y-69696115D01*
X100224800Y-68838972D02*
X100272419Y-68934210D01*
X100272419Y-68934210D02*
X100272419Y-69124686D01*
X100272419Y-69124686D02*
X100224800Y-69219924D01*
X100224800Y-69219924D02*
X100129561Y-69267543D01*
X100129561Y-69267543D02*
X99748609Y-69267543D01*
X99748609Y-69267543D02*
X99653371Y-69219924D01*
X99653371Y-69219924D02*
X99605752Y-69124686D01*
X99605752Y-69124686D02*
X99605752Y-68934210D01*
X99605752Y-68934210D02*
X99653371Y-68838972D01*
X99653371Y-68838972D02*
X99748609Y-68791353D01*
X99748609Y-68791353D02*
X99843847Y-68791353D01*
X99843847Y-68791353D02*
X99939085Y-69267543D01*
X100272419Y-67600876D02*
X99272419Y-67600876D01*
X100272419Y-67029448D02*
X99700990Y-67458019D01*
X99272419Y-67029448D02*
X99843847Y-67600876D01*
X100224800Y-66219924D02*
X100272419Y-66315162D01*
X100272419Y-66315162D02*
X100272419Y-66505638D01*
X100272419Y-66505638D02*
X100224800Y-66600876D01*
X100224800Y-66600876D02*
X100129561Y-66648495D01*
X100129561Y-66648495D02*
X99748609Y-66648495D01*
X99748609Y-66648495D02*
X99653371Y-66600876D01*
X99653371Y-66600876D02*
X99605752Y-66505638D01*
X99605752Y-66505638D02*
X99605752Y-66315162D01*
X99605752Y-66315162D02*
X99653371Y-66219924D01*
X99653371Y-66219924D02*
X99748609Y-66172305D01*
X99748609Y-66172305D02*
X99843847Y-66172305D01*
X99843847Y-66172305D02*
X99939085Y-66648495D01*
X99605752Y-65838971D02*
X100272419Y-65600876D01*
X99605752Y-65362781D02*
X100272419Y-65600876D01*
X100272419Y-65600876D02*
X100510514Y-65696114D01*
X100510514Y-65696114D02*
X100558133Y-65743733D01*
X100558133Y-65743733D02*
X100605752Y-65838971D01*
X100272419Y-63648495D02*
X99796228Y-63981828D01*
X100272419Y-64219923D02*
X99272419Y-64219923D01*
X99272419Y-64219923D02*
X99272419Y-63838971D01*
X99272419Y-63838971D02*
X99320038Y-63743733D01*
X99320038Y-63743733D02*
X99367657Y-63696114D01*
X99367657Y-63696114D02*
X99462895Y-63648495D01*
X99462895Y-63648495D02*
X99605752Y-63648495D01*
X99605752Y-63648495D02*
X99700990Y-63696114D01*
X99700990Y-63696114D02*
X99748609Y-63743733D01*
X99748609Y-63743733D02*
X99796228Y-63838971D01*
X99796228Y-63838971D02*
X99796228Y-64219923D01*
X100224800Y-62838971D02*
X100272419Y-62934209D01*
X100272419Y-62934209D02*
X100272419Y-63124685D01*
X100272419Y-63124685D02*
X100224800Y-63219923D01*
X100224800Y-63219923D02*
X100129561Y-63267542D01*
X100129561Y-63267542D02*
X99748609Y-63267542D01*
X99748609Y-63267542D02*
X99653371Y-63219923D01*
X99653371Y-63219923D02*
X99605752Y-63124685D01*
X99605752Y-63124685D02*
X99605752Y-62934209D01*
X99605752Y-62934209D02*
X99653371Y-62838971D01*
X99653371Y-62838971D02*
X99748609Y-62791352D01*
X99748609Y-62791352D02*
X99843847Y-62791352D01*
X99843847Y-62791352D02*
X99939085Y-63267542D01*
X100272419Y-62219923D02*
X100224800Y-62315161D01*
X100224800Y-62315161D02*
X100129561Y-62362780D01*
X100129561Y-62362780D02*
X99272419Y-62362780D01*
X100224800Y-61458018D02*
X100272419Y-61553256D01*
X100272419Y-61553256D02*
X100272419Y-61743732D01*
X100272419Y-61743732D02*
X100224800Y-61838970D01*
X100224800Y-61838970D02*
X100129561Y-61886589D01*
X100129561Y-61886589D02*
X99748609Y-61886589D01*
X99748609Y-61886589D02*
X99653371Y-61838970D01*
X99653371Y-61838970D02*
X99605752Y-61743732D01*
X99605752Y-61743732D02*
X99605752Y-61553256D01*
X99605752Y-61553256D02*
X99653371Y-61458018D01*
X99653371Y-61458018D02*
X99748609Y-61410399D01*
X99748609Y-61410399D02*
X99843847Y-61410399D01*
X99843847Y-61410399D02*
X99939085Y-61886589D01*
X100272419Y-60553256D02*
X99748609Y-60553256D01*
X99748609Y-60553256D02*
X99653371Y-60600875D01*
X99653371Y-60600875D02*
X99605752Y-60696113D01*
X99605752Y-60696113D02*
X99605752Y-60886589D01*
X99605752Y-60886589D02*
X99653371Y-60981827D01*
X100224800Y-60553256D02*
X100272419Y-60648494D01*
X100272419Y-60648494D02*
X100272419Y-60886589D01*
X100272419Y-60886589D02*
X100224800Y-60981827D01*
X100224800Y-60981827D02*
X100129561Y-61029446D01*
X100129561Y-61029446D02*
X100034323Y-61029446D01*
X100034323Y-61029446D02*
X99939085Y-60981827D01*
X99939085Y-60981827D02*
X99891466Y-60886589D01*
X99891466Y-60886589D02*
X99891466Y-60648494D01*
X99891466Y-60648494D02*
X99843847Y-60553256D01*
X100224800Y-60124684D02*
X100272419Y-60029446D01*
X100272419Y-60029446D02*
X100272419Y-59838970D01*
X100272419Y-59838970D02*
X100224800Y-59743732D01*
X100224800Y-59743732D02*
X100129561Y-59696113D01*
X100129561Y-59696113D02*
X100081942Y-59696113D01*
X100081942Y-59696113D02*
X99986704Y-59743732D01*
X99986704Y-59743732D02*
X99939085Y-59838970D01*
X99939085Y-59838970D02*
X99939085Y-59981827D01*
X99939085Y-59981827D02*
X99891466Y-60077065D01*
X99891466Y-60077065D02*
X99796228Y-60124684D01*
X99796228Y-60124684D02*
X99748609Y-60124684D01*
X99748609Y-60124684D02*
X99653371Y-60077065D01*
X99653371Y-60077065D02*
X99605752Y-59981827D01*
X99605752Y-59981827D02*
X99605752Y-59838970D01*
X99605752Y-59838970D02*
X99653371Y-59743732D01*
X100224800Y-58886589D02*
X100272419Y-58981827D01*
X100272419Y-58981827D02*
X100272419Y-59172303D01*
X100272419Y-59172303D02*
X100224800Y-59267541D01*
X100224800Y-59267541D02*
X100129561Y-59315160D01*
X100129561Y-59315160D02*
X99748609Y-59315160D01*
X99748609Y-59315160D02*
X99653371Y-59267541D01*
X99653371Y-59267541D02*
X99605752Y-59172303D01*
X99605752Y-59172303D02*
X99605752Y-58981827D01*
X99605752Y-58981827D02*
X99653371Y-58886589D01*
X99653371Y-58886589D02*
X99748609Y-58838970D01*
X99748609Y-58838970D02*
X99843847Y-58838970D01*
X99843847Y-58838970D02*
X99939085Y-59315160D01*
X100272419Y-57981827D02*
X99272419Y-57981827D01*
X100224800Y-57981827D02*
X100272419Y-58077065D01*
X100272419Y-58077065D02*
X100272419Y-58267541D01*
X100272419Y-58267541D02*
X100224800Y-58362779D01*
X100224800Y-58362779D02*
X100177180Y-58410398D01*
X100177180Y-58410398D02*
X100081942Y-58458017D01*
X100081942Y-58458017D02*
X99796228Y-58458017D01*
X99796228Y-58458017D02*
X99700990Y-58410398D01*
X99700990Y-58410398D02*
X99653371Y-58362779D01*
X99653371Y-58362779D02*
X99605752Y-58267541D01*
X99605752Y-58267541D02*
X99605752Y-58077065D01*
X99605752Y-58077065D02*
X99653371Y-57981827D01*
X99748609Y-56410398D02*
X99796228Y-56267541D01*
X99796228Y-56267541D02*
X99843847Y-56219922D01*
X99843847Y-56219922D02*
X99939085Y-56172303D01*
X99939085Y-56172303D02*
X100081942Y-56172303D01*
X100081942Y-56172303D02*
X100177180Y-56219922D01*
X100177180Y-56219922D02*
X100224800Y-56267541D01*
X100224800Y-56267541D02*
X100272419Y-56362779D01*
X100272419Y-56362779D02*
X100272419Y-56743731D01*
X100272419Y-56743731D02*
X99272419Y-56743731D01*
X99272419Y-56743731D02*
X99272419Y-56410398D01*
X99272419Y-56410398D02*
X99320038Y-56315160D01*
X99320038Y-56315160D02*
X99367657Y-56267541D01*
X99367657Y-56267541D02*
X99462895Y-56219922D01*
X99462895Y-56219922D02*
X99558133Y-56219922D01*
X99558133Y-56219922D02*
X99653371Y-56267541D01*
X99653371Y-56267541D02*
X99700990Y-56315160D01*
X99700990Y-56315160D02*
X99748609Y-56410398D01*
X99748609Y-56410398D02*
X99748609Y-56743731D01*
X100272419Y-55315160D02*
X99748609Y-55315160D01*
X99748609Y-55315160D02*
X99653371Y-55362779D01*
X99653371Y-55362779D02*
X99605752Y-55458017D01*
X99605752Y-55458017D02*
X99605752Y-55648493D01*
X99605752Y-55648493D02*
X99653371Y-55743731D01*
X100224800Y-55315160D02*
X100272419Y-55410398D01*
X100272419Y-55410398D02*
X100272419Y-55648493D01*
X100272419Y-55648493D02*
X100224800Y-55743731D01*
X100224800Y-55743731D02*
X100129561Y-55791350D01*
X100129561Y-55791350D02*
X100034323Y-55791350D01*
X100034323Y-55791350D02*
X99939085Y-55743731D01*
X99939085Y-55743731D02*
X99891466Y-55648493D01*
X99891466Y-55648493D02*
X99891466Y-55410398D01*
X99891466Y-55410398D02*
X99843847Y-55315160D01*
X99605752Y-54838969D02*
X100272419Y-54838969D01*
X99700990Y-54838969D02*
X99653371Y-54791350D01*
X99653371Y-54791350D02*
X99605752Y-54696112D01*
X99605752Y-54696112D02*
X99605752Y-54553255D01*
X99605752Y-54553255D02*
X99653371Y-54458017D01*
X99653371Y-54458017D02*
X99748609Y-54410398D01*
X99748609Y-54410398D02*
X100272419Y-54410398D01*
X100272419Y-53934207D02*
X99272419Y-53934207D01*
X99891466Y-53838969D02*
X100272419Y-53553255D01*
X99605752Y-53553255D02*
X99986704Y-53934207D01*
X137872419Y-80696115D02*
X136872419Y-80696115D01*
X136872419Y-80696115D02*
X137586704Y-80362782D01*
X137586704Y-80362782D02*
X136872419Y-80029449D01*
X136872419Y-80029449D02*
X137872419Y-80029449D01*
X137872419Y-79410401D02*
X137824800Y-79505639D01*
X137824800Y-79505639D02*
X137777180Y-79553258D01*
X137777180Y-79553258D02*
X137681942Y-79600877D01*
X137681942Y-79600877D02*
X137396228Y-79600877D01*
X137396228Y-79600877D02*
X137300990Y-79553258D01*
X137300990Y-79553258D02*
X137253371Y-79505639D01*
X137253371Y-79505639D02*
X137205752Y-79410401D01*
X137205752Y-79410401D02*
X137205752Y-79267544D01*
X137205752Y-79267544D02*
X137253371Y-79172306D01*
X137253371Y-79172306D02*
X137300990Y-79124687D01*
X137300990Y-79124687D02*
X137396228Y-79077068D01*
X137396228Y-79077068D02*
X137681942Y-79077068D01*
X137681942Y-79077068D02*
X137777180Y-79124687D01*
X137777180Y-79124687D02*
X137824800Y-79172306D01*
X137824800Y-79172306D02*
X137872419Y-79267544D01*
X137872419Y-79267544D02*
X137872419Y-79410401D01*
X137872419Y-78648496D02*
X137205752Y-78648496D01*
X137396228Y-78648496D02*
X137300990Y-78600877D01*
X137300990Y-78600877D02*
X137253371Y-78553258D01*
X137253371Y-78553258D02*
X137205752Y-78458020D01*
X137205752Y-78458020D02*
X137205752Y-78362782D01*
X137824800Y-78077067D02*
X137872419Y-77981829D01*
X137872419Y-77981829D02*
X137872419Y-77791353D01*
X137872419Y-77791353D02*
X137824800Y-77696115D01*
X137824800Y-77696115D02*
X137729561Y-77648496D01*
X137729561Y-77648496D02*
X137681942Y-77648496D01*
X137681942Y-77648496D02*
X137586704Y-77696115D01*
X137586704Y-77696115D02*
X137539085Y-77791353D01*
X137539085Y-77791353D02*
X137539085Y-77934210D01*
X137539085Y-77934210D02*
X137491466Y-78029448D01*
X137491466Y-78029448D02*
X137396228Y-78077067D01*
X137396228Y-78077067D02*
X137348609Y-78077067D01*
X137348609Y-78077067D02*
X137253371Y-78029448D01*
X137253371Y-78029448D02*
X137205752Y-77934210D01*
X137205752Y-77934210D02*
X137205752Y-77791353D01*
X137205752Y-77791353D02*
X137253371Y-77696115D01*
X137824800Y-76838972D02*
X137872419Y-76934210D01*
X137872419Y-76934210D02*
X137872419Y-77124686D01*
X137872419Y-77124686D02*
X137824800Y-77219924D01*
X137824800Y-77219924D02*
X137729561Y-77267543D01*
X137729561Y-77267543D02*
X137348609Y-77267543D01*
X137348609Y-77267543D02*
X137253371Y-77219924D01*
X137253371Y-77219924D02*
X137205752Y-77124686D01*
X137205752Y-77124686D02*
X137205752Y-76934210D01*
X137205752Y-76934210D02*
X137253371Y-76838972D01*
X137253371Y-76838972D02*
X137348609Y-76791353D01*
X137348609Y-76791353D02*
X137443847Y-76791353D01*
X137443847Y-76791353D02*
X137539085Y-77267543D01*
X137872419Y-75600876D02*
X136872419Y-75600876D01*
X137872419Y-75029448D02*
X137300990Y-75458019D01*
X136872419Y-75029448D02*
X137443847Y-75600876D01*
X137824800Y-74219924D02*
X137872419Y-74315162D01*
X137872419Y-74315162D02*
X137872419Y-74505638D01*
X137872419Y-74505638D02*
X137824800Y-74600876D01*
X137824800Y-74600876D02*
X137729561Y-74648495D01*
X137729561Y-74648495D02*
X137348609Y-74648495D01*
X137348609Y-74648495D02*
X137253371Y-74600876D01*
X137253371Y-74600876D02*
X137205752Y-74505638D01*
X137205752Y-74505638D02*
X137205752Y-74315162D01*
X137205752Y-74315162D02*
X137253371Y-74219924D01*
X137253371Y-74219924D02*
X137348609Y-74172305D01*
X137348609Y-74172305D02*
X137443847Y-74172305D01*
X137443847Y-74172305D02*
X137539085Y-74648495D01*
X137205752Y-73838971D02*
X137872419Y-73600876D01*
X137205752Y-73362781D02*
X137872419Y-73600876D01*
X137872419Y-73600876D02*
X138110514Y-73696114D01*
X138110514Y-73696114D02*
X138158133Y-73743733D01*
X138158133Y-73743733D02*
X138205752Y-73838971D01*
X137824800Y-72267542D02*
X137872419Y-72124685D01*
X137872419Y-72124685D02*
X137872419Y-71886590D01*
X137872419Y-71886590D02*
X137824800Y-71791352D01*
X137824800Y-71791352D02*
X137777180Y-71743733D01*
X137777180Y-71743733D02*
X137681942Y-71696114D01*
X137681942Y-71696114D02*
X137586704Y-71696114D01*
X137586704Y-71696114D02*
X137491466Y-71743733D01*
X137491466Y-71743733D02*
X137443847Y-71791352D01*
X137443847Y-71791352D02*
X137396228Y-71886590D01*
X137396228Y-71886590D02*
X137348609Y-72077066D01*
X137348609Y-72077066D02*
X137300990Y-72172304D01*
X137300990Y-72172304D02*
X137253371Y-72219923D01*
X137253371Y-72219923D02*
X137158133Y-72267542D01*
X137158133Y-72267542D02*
X137062895Y-72267542D01*
X137062895Y-72267542D02*
X136967657Y-72219923D01*
X136967657Y-72219923D02*
X136920038Y-72172304D01*
X136920038Y-72172304D02*
X136872419Y-72077066D01*
X136872419Y-72077066D02*
X136872419Y-71838971D01*
X136872419Y-71838971D02*
X136920038Y-71696114D01*
X137824800Y-70886590D02*
X137872419Y-70981828D01*
X137872419Y-70981828D02*
X137872419Y-71172304D01*
X137872419Y-71172304D02*
X137824800Y-71267542D01*
X137824800Y-71267542D02*
X137729561Y-71315161D01*
X137729561Y-71315161D02*
X137348609Y-71315161D01*
X137348609Y-71315161D02*
X137253371Y-71267542D01*
X137253371Y-71267542D02*
X137205752Y-71172304D01*
X137205752Y-71172304D02*
X137205752Y-70981828D01*
X137205752Y-70981828D02*
X137253371Y-70886590D01*
X137253371Y-70886590D02*
X137348609Y-70838971D01*
X137348609Y-70838971D02*
X137443847Y-70838971D01*
X137443847Y-70838971D02*
X137539085Y-71315161D01*
X137824800Y-70029447D02*
X137872419Y-70124685D01*
X137872419Y-70124685D02*
X137872419Y-70315161D01*
X137872419Y-70315161D02*
X137824800Y-70410399D01*
X137824800Y-70410399D02*
X137729561Y-70458018D01*
X137729561Y-70458018D02*
X137348609Y-70458018D01*
X137348609Y-70458018D02*
X137253371Y-70410399D01*
X137253371Y-70410399D02*
X137205752Y-70315161D01*
X137205752Y-70315161D02*
X137205752Y-70124685D01*
X137205752Y-70124685D02*
X137253371Y-70029447D01*
X137253371Y-70029447D02*
X137348609Y-69981828D01*
X137348609Y-69981828D02*
X137443847Y-69981828D01*
X137443847Y-69981828D02*
X137539085Y-70458018D01*
X137824800Y-69600875D02*
X137872419Y-69505637D01*
X137872419Y-69505637D02*
X137872419Y-69315161D01*
X137872419Y-69315161D02*
X137824800Y-69219923D01*
X137824800Y-69219923D02*
X137729561Y-69172304D01*
X137729561Y-69172304D02*
X137681942Y-69172304D01*
X137681942Y-69172304D02*
X137586704Y-69219923D01*
X137586704Y-69219923D02*
X137539085Y-69315161D01*
X137539085Y-69315161D02*
X137539085Y-69458018D01*
X137539085Y-69458018D02*
X137491466Y-69553256D01*
X137491466Y-69553256D02*
X137396228Y-69600875D01*
X137396228Y-69600875D02*
X137348609Y-69600875D01*
X137348609Y-69600875D02*
X137253371Y-69553256D01*
X137253371Y-69553256D02*
X137205752Y-69458018D01*
X137205752Y-69458018D02*
X137205752Y-69315161D01*
X137205752Y-69315161D02*
X137253371Y-69219923D01*
X137872419Y-68315161D02*
X137348609Y-68315161D01*
X137348609Y-68315161D02*
X137253371Y-68362780D01*
X137253371Y-68362780D02*
X137205752Y-68458018D01*
X137205752Y-68458018D02*
X137205752Y-68648494D01*
X137205752Y-68648494D02*
X137253371Y-68743732D01*
X137824800Y-68315161D02*
X137872419Y-68410399D01*
X137872419Y-68410399D02*
X137872419Y-68648494D01*
X137872419Y-68648494D02*
X137824800Y-68743732D01*
X137824800Y-68743732D02*
X137729561Y-68791351D01*
X137729561Y-68791351D02*
X137634323Y-68791351D01*
X137634323Y-68791351D02*
X137539085Y-68743732D01*
X137539085Y-68743732D02*
X137491466Y-68648494D01*
X137491466Y-68648494D02*
X137491466Y-68410399D01*
X137491466Y-68410399D02*
X137443847Y-68315161D01*
X137205752Y-67934208D02*
X137872419Y-67743732D01*
X137872419Y-67743732D02*
X137396228Y-67553256D01*
X137396228Y-67553256D02*
X137872419Y-67362780D01*
X137872419Y-67362780D02*
X137205752Y-67172304D01*
D11*
X131534819Y-101679333D02*
X132249104Y-101679333D01*
X132249104Y-101679333D02*
X132391961Y-101726952D01*
X132391961Y-101726952D02*
X132487200Y-101822190D01*
X132487200Y-101822190D02*
X132534819Y-101965047D01*
X132534819Y-101965047D02*
X132534819Y-102060285D01*
X131868152Y-100774571D02*
X132534819Y-100774571D01*
X131487200Y-101012666D02*
X132201485Y-101250761D01*
X132201485Y-101250761D02*
X132201485Y-100631714D01*
X138924819Y-96853333D02*
X139639104Y-96853333D01*
X139639104Y-96853333D02*
X139781961Y-96900952D01*
X139781961Y-96900952D02*
X139877200Y-96996190D01*
X139877200Y-96996190D02*
X139924819Y-97139047D01*
X139924819Y-97139047D02*
X139924819Y-97234285D01*
X139924819Y-95853333D02*
X139924819Y-96424761D01*
X139924819Y-96139047D02*
X138924819Y-96139047D01*
X138924819Y-96139047D02*
X139067676Y-96234285D01*
X139067676Y-96234285D02*
X139162914Y-96329523D01*
X139162914Y-96329523D02*
X139210533Y-96424761D01*
X159474819Y-101679333D02*
X160189104Y-101679333D01*
X160189104Y-101679333D02*
X160331961Y-101726952D01*
X160331961Y-101726952D02*
X160427200Y-101822190D01*
X160427200Y-101822190D02*
X160474819Y-101965047D01*
X160474819Y-101965047D02*
X160474819Y-102060285D01*
X159474819Y-101298380D02*
X159474819Y-100679333D01*
X159474819Y-100679333D02*
X159855771Y-101012666D01*
X159855771Y-101012666D02*
X159855771Y-100869809D01*
X159855771Y-100869809D02*
X159903390Y-100774571D01*
X159903390Y-100774571D02*
X159951009Y-100726952D01*
X159951009Y-100726952D02*
X160046247Y-100679333D01*
X160046247Y-100679333D02*
X160284342Y-100679333D01*
X160284342Y-100679333D02*
X160379580Y-100726952D01*
X160379580Y-100726952D02*
X160427200Y-100774571D01*
X160427200Y-100774571D02*
X160474819Y-100869809D01*
X160474819Y-100869809D02*
X160474819Y-101155523D01*
X160474819Y-101155523D02*
X160427200Y-101250761D01*
X160427200Y-101250761D02*
X160379580Y-101298380D01*
X144234819Y-101679333D02*
X144949104Y-101679333D01*
X144949104Y-101679333D02*
X145091961Y-101726952D01*
X145091961Y-101726952D02*
X145187200Y-101822190D01*
X145187200Y-101822190D02*
X145234819Y-101965047D01*
X145234819Y-101965047D02*
X145234819Y-102060285D01*
X144330057Y-101250761D02*
X144282438Y-101203142D01*
X144282438Y-101203142D02*
X144234819Y-101107904D01*
X144234819Y-101107904D02*
X144234819Y-100869809D01*
X144234819Y-100869809D02*
X144282438Y-100774571D01*
X144282438Y-100774571D02*
X144330057Y-100726952D01*
X144330057Y-100726952D02*
X144425295Y-100679333D01*
X144425295Y-100679333D02*
X144520533Y-100679333D01*
X144520533Y-100679333D02*
X144663390Y-100726952D01*
X144663390Y-100726952D02*
X145234819Y-101298380D01*
X145234819Y-101298380D02*
X145234819Y-100679333D01*
D10*
%TO.C,SW1*%
X100920000Y-106400000D02*
X110920000Y-106400000D01*
X110920000Y-106400000D02*
X110920000Y-53400000D01*
X110920000Y-53400000D02*
X100920000Y-53400000D01*
X100920000Y-53400000D02*
X100920000Y-106400000D01*
X124170000Y-64400000D02*
X136320000Y-64400000D01*
X136320000Y-64400000D02*
X136320000Y-94400000D01*
X136320000Y-94400000D02*
X124170000Y-94400000D01*
X124170000Y-94400000D02*
X124170000Y-64400000D01*
X163420000Y-106400000D02*
X173420000Y-106400000D01*
X173420000Y-106400000D02*
X173420000Y-53400000D01*
X173420000Y-53400000D02*
X163420000Y-53400000D01*
X163420000Y-53400000D02*
X163420000Y-106400000D01*
D12*
%TO.C,J4*%
X135830000Y-104140000D02*
X135830000Y-102810000D01*
X135830000Y-102810000D02*
X137160000Y-102810000D01*
X138430000Y-105470000D02*
X146110000Y-105470000D01*
X138430000Y-105470000D02*
X138430000Y-102810000D01*
X138430000Y-102810000D02*
X146110000Y-102810000D01*
X146110000Y-105470000D02*
X146110000Y-102810000D01*
%TO.C,J1*%
X143510000Y-97850000D02*
X146110000Y-97850000D01*
X143510000Y-95190000D02*
X146110000Y-95190000D01*
X143510000Y-97850000D02*
X143510000Y-95190000D01*
X140910000Y-96520000D02*
X140910000Y-95190000D01*
X140910000Y-95190000D02*
X142240000Y-95190000D01*
X146110000Y-97850000D02*
X146110000Y-95190000D01*
%TO.C,J3*%
X161350000Y-104140000D02*
X161350000Y-105470000D01*
X161350000Y-105470000D02*
X160020000Y-105470000D01*
X158750000Y-102810000D02*
X151070000Y-102810000D01*
X158750000Y-102810000D02*
X158750000Y-105470000D01*
X158750000Y-105470000D02*
X151070000Y-105470000D01*
X151070000Y-102810000D02*
X151070000Y-105470000D01*
%TO.C,J2*%
X133410000Y-105470000D02*
X132080000Y-105470000D01*
X130810000Y-102810000D02*
X130810000Y-105470000D01*
X130810000Y-105470000D02*
X112970000Y-105470000D01*
X112970000Y-102810000D02*
X112970000Y-105470000D01*
X130810000Y-102810000D02*
X112970000Y-102810000D01*
X133410000Y-104140000D02*
X133410000Y-105470000D01*
%TD*%
M02*
